<?xml version="1.0" standalone="no"?>
<!DOCTYPE svg PUBLIC "-//W3C//DTD SVG 20010904//EN"
 "http://www.w3.org/TR/2001/REC-SVG-20010904/DTD/svg10.dtd">
<svg version="1.0" xmlns="http://www.w3.org/2000/svg"
 width="523.000000pt" height="477.000000pt" viewBox="0 0 523.000000 477.000000"
 preserveAspectRatio="xMidYMid meet">

<g transform="translate(0.000000,477.000000) scale(0.100000,-0.100000)"
fill="#000000" stroke="none">
<path d="M2710 4254 c-25 -9 -67 -32 -94 -51 l-49 -35 -50 16 c-100 32 -224
17 -309 -39 -21 -14 -50 -25 -65 -25 -49 0 -255 -47 -348 -79 -388 -134 -731
-443 -905 -813 -275 -588 -161 -1296 283 -1750 39 -41 99 -97 132 -125 l59
-51 -11 -68 c-6 -38 -28 -172 -48 -298 l-37 -228 19 -27 c26 -34 75 -38 185
-16 104 22 157 41 184 66 20 19 26 19 80 8 71 -14 142 2 216 51 40 27 49 29
72 19 20 -10 38 -9 80 0 72 16 104 42 112 91 6 35 9 38 48 44 32 4 43 2 51
-11 29 -47 46 -56 101 -50 29 3 68 12 86 20 18 9 56 17 84 20 28 2 65 11 84
20 18 10 47 17 65 17 36 0 197 33 265 54 25 8 69 17 99 21 63 7 89 19 113 49
14 17 19 19 29 9 18 -18 75 -15 139 7 30 11 65 19 76 20 27 0 228 45 272 61
42 14 63 56 69 134 5 55 3 62 -21 84 -23 21 -24 27 -12 40 30 34 49 172 26
186 -19 12 -10 33 21 46 39 15 60 61 62 135 3 69 -22 97 -85 99 -24 0 -42 5
-41 10 1 6 16 50 33 98 150 430 129 826 -67 1239 l-56 117 28 37 c55 72 70
189 39 307 -36 139 -110 230 -216 266 -74 25 -125 26 -230 5 -43 -9 -89 -13
-102 -10 -16 4 -38 30 -67 78 -87 147 -171 210 -289 215 -41 2 -81 -3 -110
-13z m160 -74 c57 -16 106 -65 171 -171 70 -114 128 -170 207 -199 57 -22 167
-25 167 -5 0 6 -23 17 -51 26 -58 19 -126 50 -121 55 2 2 35 10 74 18 84 18
147 7 212 -38 67 -46 129 -198 116 -280 -21 -126 -106 -206 -220 -206 -70 0
-93 13 -97 56 l-3 36 -26 -26 c-28 -28 -69 -138 -69 -186 0 -17 -3 -30 -7 -29
-5 0 -41 38 -81 85 -79 91 -139 136 -245 183 -122 55 -220 75 -256 52 -14 -9
-2 -13 85 -26 45 -7 265 -113 271 -131 2 -6 -22 2 -54 17 -91 45 -169 35 -115
-14 10 -9 46 -25 80 -35 34 -11 75 -31 92 -46 18 -14 37 -26 43 -26 14 0 37
-107 37 -169 0 -31 -7 -49 -31 -76 -40 -45 -29 -61 26 -43 27 9 48 26 66 53
33 48 62 53 67 12 2 -16 -2 -35 -9 -43 -9 -11 -9 -14 1 -14 48 0 70 95 29 124
-21 14 -21 15 17 31 47 19 79 9 94 -31 12 -31 6 -55 -25 -104 -13 -19 -28 -53
-35 -75 -22 -72 -60 -93 -107 -60 -24 17 -37 7 -27 -20 4 -9 3 -20 -2 -24 -5
-3 -27 -32 -48 -64 -47 -70 -119 -128 -194 -159 -49 -19 -75 -23 -182 -23
-139 0 -175 12 -252 81 -21 18 -50 36 -65 40 -16 3 -33 7 -40 9 -21 7 -73 87
-73 112 0 22 3 23 41 17 30 -5 53 -18 84 -50 59 -59 143 -84 280 -84 55 0 127
-1 161 -2 48 -2 68 3 98 22 48 29 76 74 76 121 l0 36 -49 -5 c-47 -4 -51 -2
-98 40 -58 55 -82 68 -122 68 -16 0 -33 5 -37 11 -4 7 -15 2 -30 -14 -46 -50
-134 -45 -154 8 -12 33 1 68 45 117 45 49 44 60 -2 44 -24 -8 -49 -10 -67 -5
-40 11 -44 4 -15 -27 24 -25 24 -26 5 -40 -11 -8 -36 -14 -55 -14 -20 0 -54
-11 -77 -24 -49 -28 -87 -38 -108 -30 -19 7 -21 44 -3 44 20 0 155 143 171
182 8 18 17 52 21 75 6 40 9 43 61 63 30 11 57 20 59 20 2 0 16 5 30 10 23 9
25 13 14 26 -11 13 -30 15 -98 13 -76 -4 -86 -2 -89 14 -6 31 26 55 84 63 74
9 68 24 -8 24 -35 0 -69 4 -77 9 -7 5 -16 29 -18 55 -7 55 -17 64 -44 40 -17
-15 -22 -16 -45 -3 -41 22 -120 116 -133 158 -22 77 -8 164 37 215 53 59 198
85 272 48 35 -17 35 -17 32 -75 -4 -54 11 -117 27 -117 4 0 15 33 24 73 29
120 68 172 153 202 47 17 87 18 134 5z m-1050 -369 c53 -28 80 -74 80 -136 0
-59 -8 -65 -82 -65 -38 0 -38 0 -38 43 0 24 -11 65 -25 95 -14 30 -25 60 -25
68 0 20 48 18 90 -5z m265 -265 c47 -20 64 -56 42 -90 -15 -22 -20 -24 -45
-15 -37 13 -178 8 -173 -6 2 -5 38 -20 80 -32 84 -24 111 -48 111 -97 0 -30
-3 -32 -52 -43 -76 -16 -108 -30 -108 -48 0 -12 14 -14 79 -12 66 2 82 -1 100
-17 54 -48 -14 -196 -96 -212 -31 -6 -33 -5 -33 24 0 49 -19 49 -61 0 -47 -56
-125 -93 -163 -78 -52 19 -146 177 -146 243 0 51 51 228 87 303 22 46 34 60
58 66 109 29 267 36 320 14z m-517 -174 c7 -5 11 -15 8 -23 -2 -8 -7 -26 -10
-41 -8 -35 -26 -37 -26 -3 0 35 -17 31 -25 -6 -11 -47 2 -93 54 -198 65 -132
91 -171 151 -223 46 -40 51 -48 41 -66 -16 -30 -45 -35 -105 -18 -77 23 -171
89 -202 142 -39 66 -64 157 -64 229 0 74 13 108 46 123 13 6 30 25 39 41 23
45 62 62 93 43z m872 -337 c0 -9 -105 -65 -122 -65 -20 0 -25 20 -5 20 6 1 35
12 62 25 51 24 65 29 65 20z m-1059 -97 c18 -44 105 -135 151 -159 20 -10 62
-28 93 -40 53 -20 56 -23 50 -47 -10 -40 -66 -113 -116 -151 -54 -41 -59 -51
-22 -51 51 0 145 73 190 146 10 17 12 16 27 -19 9 -20 19 -63 22 -94 2 -31 7
-60 10 -65 3 -5 -4 -23 -15 -42 -12 -18 -21 -43 -21 -55 0 -28 -8 -27 -76 15
-52 31 -65 35 -106 30 -26 -3 -61 -12 -78 -21 -23 -12 -44 -15 -73 -10 -58 10
-215 86 -255 125 -28 27 -32 37 -27 64 15 74 195 406 221 406 6 0 18 -15 25
-32z m1469 -33 c44 -41 55 -55 40 -55 -20 0 -121 76 -128 98 -9 28 32 8 88
-43z m-251 9 c31 -40 27 -54 -16 -54 -36 -1 -37 -2 -19 -15 11 -8 30 -15 42
-15 13 0 36 -11 51 -25 l28 -24 -60 -1 c-59 0 -131 26 -177 63 -21 17 -24 37
-5 37 7 0 33 13 57 29 56 37 73 38 99 5z m-537 -76 c56 -9 77 -9 106 2 32 11
37 11 47 -5 5 -9 28 -44 49 -76 21 -33 37 -61 35 -62 -34 -26 -94 -50 -134
-54 -27 -3 -67 -14 -88 -25 -22 -11 -40 -18 -40 -16 -39 81 -114 161 -169 180
-37 13 -35 34 5 47 71 22 102 24 189 9z m1670 -30 c45 -31 72 -99 63 -157 -8
-57 -38 -107 -75 -126 -40 -21 -133 -19 -221 5 -90 24 -140 25 -180 5 -33 -17
-31 -26 13 -63 41 -34 126 -145 143 -186 22 -53 20 -59 -20 -53 -40 7 -57 -10
-29 -29 87 -60 164 -214 152 -308 -2 -22 -11 -31 -42 -41 -22 -8 -49 -25 -60
-40 -19 -24 -24 -25 -54 -14 -19 6 -59 9 -90 6 l-57 -5 -23 53 c-46 103 -132
198 -158 172 -3 -2 19 -37 49 -76 53 -71 86 -147 70 -161 -12 -11 -114 -42
-120 -36 -3 2 -8 34 -13 70 -4 35 -15 79 -24 97 -9 18 -16 38 -16 46 0 25 -18
13 -51 -36 -33 -48 -35 -49 -99 -55 -73 -6 -110 -28 -125 -72 -12 -38 -12 -37
-27 -28 -7 5 -24 7 -38 6 -14 -2 -56 7 -95 19 -52 16 -83 20 -122 15 -61 -7
-79 5 -88 62 -10 59 -25 91 -57 117 -41 35 -50 24 -22 -30 12 -25 25 -71 29
-103 3 -31 12 -69 19 -84 17 -33 15 -35 -29 -30 -27 3 -48 17 -83 52 -36 36
-57 49 -89 55 -39 6 -43 5 -56 -22 -18 -33 -57 -71 -57 -55 0 22 -30 12 -40
-12 -7 -18 -19 -25 -57 -31 -26 -4 -51 -12 -54 -17 -4 -6 -19 -1 -38 13 -27
20 -29 25 -17 38 19 22 9 78 -15 84 -23 6 -25 27 -3 27 28 0 -9 44 -42 50 -16
3 -30 12 -32 21 -4 24 41 73 87 94 23 10 41 22 41 27 0 5 9 6 20 3 11 -3 20
-2 20 2 0 18 -25 33 -52 33 -15 0 -28 5 -28 10 0 35 -81 -27 -131 -101 -23
-33 -30 -22 -22 38 5 48 9 54 79 112 68 58 113 81 157 81 27 0 77 -54 77 -83
0 -14 8 -31 19 -38 10 -8 22 -27 25 -43 6 -25 1 -34 -39 -72 -25 -24 -52 -44
-60 -44 -20 0 -65 -22 -65 -32 0 -12 90 -10 149 4 32 7 53 18 56 29 12 37 47
68 95 84 28 9 50 20 50 25 0 5 -21 10 -47 12 -67 4 -69 31 -6 76 40 30 51 33
87 28 52 -8 68 -8 142 0 46 5 68 2 92 -10 37 -19 39 -29 12 -56 -24 -24 -60
-27 -60 -5 0 18 -7 18 -49 4 -20 -7 -30 -16 -27 -25 3 -9 -7 -14 -37 -16 -23
-2 -41 -7 -41 -13 2 -17 157 -92 161 -78 3 8 14 11 28 7 12 -3 37 1 53 10 17
9 33 12 36 7 4 -5 0 -11 -6 -14 -7 -2 -10 -8 -6 -12 8 -9 98 24 98 36 0 5 -11
9 -24 9 -24 0 -56 23 -56 40 0 5 9 14 21 20 11 7 18 14 16 17 -8 7 14 63 24
63 5 0 9 -7 9 -15 0 -32 28 -1 33 37 6 44 19 62 55 73 22 6 23 5 16 -17 -4
-12 -8 -41 -9 -63 -1 -52 -8 -61 -61 -85 -24 -11 -44 -25 -44 -30 0 -6 21 -10
48 -10 27 0 57 -7 70 -16 25 -17 29 -49 8 -61 -40 -24 -86 -69 -86 -85 0 -23
34 -18 106 13 59 26 82 43 157 116 54 53 56 57 41 74 -23 26 -13 43 45 76 28
15 51 31 51 36 0 16 -50 5 -105 -22 -33 -17 -63 -27 -68 -24 -9 6 -5 53 8 86
6 13 2 17 -14 17 -17 0 -27 -12 -42 -45 -14 -30 -26 -45 -39 -45 -28 0 -34 18
-15 46 9 14 13 33 10 43 -7 24 -49 45 -91 45 -26 0 -34 4 -34 18 0 13 -8 18
-26 18 -19 0 -28 -8 -40 -35 -13 -33 -41 -54 -91 -69 -19 -6 -23 -4 -23 13 0
23 -10 27 -27 10 -5 -5 -26 -11 -44 -11 -19 0 -39 -4 -45 -9 -5 -5 -23 -5 -39
-1 -19 6 -25 11 -17 16 7 4 10 12 7 17 -9 13 -25 11 -25 -3 0 -8 -16 -13 -42
-14 -24 -1 -63 -4 -88 -7 -25 -3 -50 -6 -57 -6 -7 -1 -18 -13 -25 -28 -8 -17
-23 -29 -37 -31 -22 -4 -23 -2 -16 35 4 21 9 41 11 44 2 4 36 23 76 44 39 20
77 43 83 52 10 14 18 14 64 2 43 -11 58 -11 84 0 18 7 56 22 85 33 49 20 71
48 36 48 -8 0 -22 7 -31 15 -12 13 -13 18 -2 31 10 13 10 17 -1 24 -9 5 -20 5
-27 -2 -10 -8 -13 -4 -13 18 0 16 -8 50 -17 76 -9 26 -15 50 -12 53 3 2 34
-22 70 -55 35 -33 67 -60 71 -60 19 0 87 -74 93 -100 8 -37 14 -41 76 -46 28
-2 57 -10 64 -18 8 -8 33 -17 56 -21 34 -6 51 -2 105 25 68 33 182 131 211
181 13 21 25 29 45 29 22 0 31 7 42 34 28 68 100 86 236 62 153 -28 204 -19
236 39 17 31 17 35 1 59 -21 32 -6 34 35 4z m-1879 -80 c85 -57 147 -138 147
-191 0 -14 7 -30 16 -38 16 -13 54 -81 54 -97 0 -6 -8 -9 -17 -8 -14 1 -18 -6
-16 -26 1 -20 -5 -29 -27 -38 -20 -8 -26 -17 -23 -31 5 -17 2 -18 -24 -8 -52
18 -173 -22 -210 -70 -13 -17 -33 -31 -43 -31 -10 0 -31 -13 -47 -30 -22 -24
-37 -30 -73 -31 -34 -1 -39 -3 -21 -8 36 -10 36 -28 2 -45 -40 -21 -57 -20
-75 5 -13 20 -43 18 -31 -1 12 -19 -14 -19 -38 0 -33 26 -44 87 -23 128 30 59
94 90 124 60 9 -9 20 -9 47 1 26 9 40 9 56 1 29 -16 32 -9 13 30 -17 32 -17
32 -75 27 -33 -3 -59 -1 -59 3 0 4 21 15 46 24 42 14 49 14 78 -1 17 -9 47
-29 66 -44 41 -34 96 -38 150 -11 40 19 57 59 21 47 -17 -5 -21 -2 -21 18 0
14 7 28 16 31 11 4 14 13 11 27 -3 12 0 30 6 40 9 15 9 23 -1 37 -24 34 -33
65 -22 76 17 17 11 41 -16 67 -29 27 -54 70 -54 94 0 21 26 19 63 -7z m-268
-782 c22 -7 44 -23 50 -35 6 -12 29 -31 53 -42 23 -12 42 -24 42 -28 0 -5 -7
-22 -16 -39 -16 -34 -49 -43 -72 -20 -6 6 -25 11 -41 10 -17 0 -33 4 -36 9
-10 15 -28 10 -21 -6 9 -24 -10 -17 -42 15 -45 44 -47 106 -5 138 21 15 38 15
88 -2z m2220 -153 c-4 -27 -10 -52 -14 -56 -4 -4 -42 -16 -85 -26 -42 -10 -79
-20 -81 -23 -8 -7 -26 -111 -20 -116 2 -2 24 1 49 7 25 6 54 11 66 11 19 0 20
-4 14 -37 -11 -62 -19 -69 -84 -82 -48 -10 -63 -17 -69 -34 -12 -33 -22 -117
-13 -117 4 0 42 8 84 19 43 10 80 16 83 13 7 -7 -5 -71 -16 -94 -6 -11 -51
-26 -140 -48 -72 -17 -134 -28 -137 -25 -3 3 7 87 22 187 46 299 63 389 75
401 12 12 208 64 250 66 22 1 23 -1 16 -46z m-835 -34 c34 -56 30 -69 -21 -69
-18 0 -38 14 -67 46 -23 25 -42 47 -42 49 0 6 60 23 82 24 9 1 29 -20 48 -50z
m439 -29 c30 -15 44 -64 37 -122 -7 -54 -34 -116 -60 -137 -14 -11 -13 -16 6
-42 l21 -28 -19 -118 -19 -117 -45 -13 c-25 -7 -48 -9 -53 -4 -5 5 -3 47 6 99
16 102 10 122 -33 122 -45 0 -55 -20 -69 -129 -7 -55 -18 -107 -25 -116 -11
-16 -86 -39 -95 -29 -5 5 6 86 49 364 24 153 36 210 50 224 19 19 141 53 198
55 18 1 41 -3 51 -9z m-323 -97 c-3 -26 -12 -52 -19 -59 -6 -6 -47 -18 -89
-28 l-76 -17 -7 -42 c-4 -23 -9 -51 -12 -61 -5 -17 -1 -18 28 -12 19 3 51 9
72 13 l39 6 -7 -49 c-4 -27 -9 -51 -11 -53 -3 -3 -35 -12 -72 -22 l-67 -16
-11 -64 c-6 -35 -9 -66 -8 -67 1 -2 39 4 84 14 44 9 83 15 86 12 8 -9 -8 -89
-21 -101 -13 -13 -264 -72 -272 -64 -2 3 5 67 17 143 12 77 30 195 41 264 28
182 30 187 92 205 80 23 170 43 196 44 23 1 23 -1 17 -46z m-340 -60 c-3 -16
-24 -147 -46 -293 -29 -187 -45 -268 -56 -276 -17 -14 -83 -28 -91 -20 -8 8
86 578 98 592 11 13 35 20 77 23 21 1 23 -2 18 -26z m-172 -55 c-3 -24 -17
-113 -30 -198 -13 -85 -29 -186 -35 -225 -18 -119 -24 -131 -72 -143 -23 -6
-45 -8 -48 -4 -4 4 1 59 12 122 30 182 25 191 -30 66 -48 -109 -60 -124 -108
-125 -19 -1 -22 7 -33 72 -6 39 -15 83 -19 97 l-9 25 -5 -25 c-4 -14 -13 -72
-22 -130 -8 -58 -18 -117 -21 -131 -5 -28 -39 -49 -79 -49 -30 0 -31 9 -10
135 8 50 26 164 40 255 14 91 30 175 35 187 9 22 62 43 106 43 20 0 23 -10 39
-117 10 -65 21 -126 24 -136 5 -12 28 31 76 140 66 149 72 159 105 170 19 7
47 12 63 12 26 1 27 0 21 -41z m-501 -98 c-6 -66 -65 -429 -74 -457 -16 -51
-66 -111 -110 -134 -58 -29 -141 -37 -173 -15 -48 31 -48 68 -7 324 24 151 42
237 51 242 18 11 81 23 87 16 3 -3 -9 -93 -26 -201 -45 -277 -44 -292 17 -276
50 14 61 45 100 282 l37 224 35 12 c49 17 65 12 63 -17z m-533 -95 c0 -3 -16
-101 -35 -216 -36 -217 -40 -259 -27 -259 4 0 36 7 71 15 36 9 68 12 72 8 9
-10 -5 -91 -17 -102 -14 -12 -254 -65 -261 -58 -3 4 -1 39 6 79 7 40 28 169
46 287 19 117 40 219 46 227 14 17 99 33 99 19z m84 -168 c16 -12 17 -20 6
-92 -16 -107 -25 -127 -53 -123 -25 3 -26 17 -6 151 12 79 20 88 53 64z"/>
<path d="M2562 3343 c14 -16 28 -35 31 -43 4 -10 6 -7 6 8 1 23 -31 62 -51 62
-6 0 0 -12 14 -27z"/>
<path d="M2833 3333 c-21 -8 -15 -23 10 -23 12 0 33 -7 46 -17 18 -12 23 -13
19 -2 -6 18 -60 48 -75 42z"/>
<path d="M2510 3305 c-14 -38 -12 -77 6 -103 19 -28 32 -28 43 1 6 15 5 29 -5
45 -9 14 -10 22 -4 22 6 0 10 12 8 27 -4 38 -35 43 -48 8z"/>
<path d="M2829 3274 c-17 -20 -16 -118 1 -139 16 -20 44 -19 61 1 11 14 10 21
-4 47 -16 27 -16 31 -3 39 21 12 20 31 -2 51 -23 21 -36 21 -53 1z"/>
<path d="M3252 1612 c-13 -9 -38 -129 -29 -139 8 -8 74 16 87 32 15 18 30 83
23 101 -6 15 -60 19 -81 6z"/>
<path d="M4355 1276 c-36 -15 -76 -60 -94 -104 l-13 -31 -33 33 c-58 58 -65
57 -425 -25 -74 -17 -144 -36 -154 -42 -11 -5 -48 -11 -82 -12 -82 -3 -122
-26 -154 -90 l-24 -50 -12 40 c-11 40 -12 40 -58 39 -27 0 -51 -6 -55 -13 -5
-7 -3 -36 4 -64 7 -29 15 -74 19 -100 7 -47 7 -48 -13 -35 -17 10 -21 23 -21
61 0 41 -5 53 -30 79 -30 29 -33 30 -98 25 -89 -7 -163 -24 -180 -41 -12 -12
-9 -38 18 -172 18 -88 38 -165 45 -172 9 -11 28 -9 102 7 110 24 170 53 184
88 10 28 15 26 33 -9 10 -19 19 -22 46 -20 47 5 70 19 70 42 0 17 4 18 26 10
41 -16 125 -11 171 9 53 25 78 63 77 118 -2 70 -58 113 -149 113 -25 0 -45 4
-45 9 0 15 38 23 79 16 29 -5 40 -3 44 9 6 14 92 34 103 23 3 -3 16 -55 29
-117 12 -61 27 -116 33 -122 8 -8 24 -7 56 2 54 15 54 14 26 142 -27 117 -25
130 20 139 19 4 37 6 39 4 2 -2 14 -54 28 -116 13 -62 26 -116 29 -121 7 -11
47 -10 80 2 25 10 26 14 22 55 -7 57 9 59 63 10 28 -25 46 -34 62 -31 12 3 34
7 50 11 37 8 35 31 -9 76 -27 28 -34 42 -29 58 9 28 21 26 40 -6 74 -124 265
-118 332 11 42 81 6 209 -72 253 -46 26 -131 30 -180 9z m165 -28 c54 -37 73
-71 77 -135 7 -105 -57 -173 -163 -173 -165 0 -222 233 -76 310 51 27 121 26
162 -2z m-342 -74 c53 -37 66 -121 26 -166 -17 -18 -16 -20 25 -62 35 -36 40
-44 26 -50 -34 -13 -59 -5 -93 30 -30 31 -39 35 -69 29 -26 -5 -33 -10 -29
-23 19 -74 19 -75 -24 -85 -25 -6 -25 -5 -59 149 -19 85 -32 156 -29 159 9 9
124 33 163 34 22 1 51 -6 63 -15z m-264 -61 c6 -19 2 -23 -36 -30 -55 -11 -56
-20 -24 -159 27 -115 25 -124 -20 -124 -23 0 -24 4 -65 198 l-11 54 -48 -7
c-43 -6 -48 -5 -53 16 -4 13 -5 25 -2 27 8 8 241 58 246 53 4 -3 10 -16 13
-28z m-299 -73 c0 -23 -4 -25 -55 -30 -64 -6 -80 -14 -80 -40 0 -26 30 -40 85
-40 72 0 114 -30 115 -82 1 -72 -52 -112 -147 -113 -67 0 -89 12 -78 44 5 18
12 20 50 14 55 -7 92 2 105 26 15 30 -12 51 -66 51 -91 0 -143 45 -129 110 12
56 72 90 150 87 46 -2 50 -4 50 -27z m-246 -179 c18 -84 31 -154 28 -157 -2
-3 -17 -6 -33 -7 l-28 -2 -33 150 c-18 83 -32 153 -33 157 0 7 38 16 55 13 5
-1 25 -70 44 -154z m-195 98 c34 -16 53 -63 39 -100 -10 -25 -8 -30 12 -43 13
-8 29 -31 35 -51 10 -30 9 -40 -5 -61 -9 -14 -31 -32 -48 -39 -46 -18 -186
-50 -193 -43 -3 3 -20 74 -38 157 -32 150 -32 152 -12 156 12 3 48 11 81 19
76 18 98 19 129 5z m247 -75 c20 -19 41 -28 76 -31 74 -7 95 -12 87 -25 -4 -7
-30 -9 -75 -5 -67 6 -69 5 -75 -19 -10 -39 -22 -28 -34 34 -7 31 -14 60 -17
65 -10 16 13 5 38 -19z"/>
<path d="M4400 1203 c-49 -18 -70 -76 -50 -137 14 -44 44 -66 88 -66 70 0 111
59 92 131 -17 61 -74 93 -130 72z m80 -33 c40 -40 38 -108 -5 -136 -75 -49
-150 74 -81 133 33 28 60 29 86 3z"/>
<path d="M4047 1123 c-16 -4 -18 -11 -12 -51 8 -57 11 -62 34 -62 67 0 106 45
82 96 -9 20 -17 24 -48 23 -21 -1 -46 -3 -56 -6z m77 -19 c9 -3 16 -15 16 -25
0 -22 -41 -45 -64 -36 -16 6 -22 48 -9 60 8 9 36 9 57 1z"/>
<path d="M3050 901 c-20 -6 -24 -13 -22 -37 5 -42 14 -47 63 -34 53 14 73 35
58 61 -10 20 -50 24 -99 10z m75 -22 c10 -15 3 -19 -39 -26 -41 -6 -51 12 -13
27 30 12 45 12 52 -1z"/>
<path d="M3097 778 l-49 -10 7 -37 c4 -20 8 -38 10 -40 10 -10 99 13 116 30
23 23 24 33 3 53 -17 18 -19 18 -87 4z m69 -19 c10 -16 -8 -29 -49 -36 -29 -4
-37 -2 -37 10 0 24 73 47 86 26z"/>
</g>
</svg>
